<svg width="392" height="71" viewBox="0 0 392 71" fill="none" xmlns="http://www.w3.org/2000/svg">
<path d="M10.7 0.999995H42.8C48.7 0.999995 53.5 5.8 53.5 11.7V35.2C53.5 41.2 48.7 45.9 42.8 45.9H10.7V35.9H42.8V11H10.7V35.9C4.8 35.9 2.38419e-07 31.1 2.38419e-07 25.2V11.7C2.38419e-07 5.8 4.8 0.999995 10.7 0.999995ZM2.38419e-07 71V56.6C2.38419e-07 50.7 4.8 45.9 10.7 45.9V71H2.38419e-07ZM65.5273 71V1.2H76.2273V71H65.5273ZM88.1836 20.3V0.999995H98.8836V31C92.9836 31 88.1836 26.2 88.1836 20.3ZM141.684 0.999995V20.3C141.684 26.2 136.884 31 130.984 31V0.999995H141.684ZM98.8836 40.9V31H130.984V40.9C136.884 40.9 141.684 45.7 141.684 51.6V71H130.984V41H98.8836V71H88.1836V51.6C88.1836 45.7 92.9836 40.9 98.8836 40.9ZM201.911 0.999995V11H164.411V30.9C158.511 30.9 153.711 26.1 153.711 20.2V11.6C153.711 5.69999 158.511 0.899997 164.411 0.899997V0.999995H201.911ZM199.311 30.9V41H164.411V30.9H199.311ZM153.711 60.3V51.7C153.711 45.8 158.511 41 164.411 41V61H201.911V71H164.411C158.511 71 153.711 66.2 153.711 60.3ZM224.567 0.999995V61C218.667 61 213.867 56.2 213.867 50.3V0.999995H224.567ZM260.167 61V71H224.667V61H260.167Z" fill="white"/>
<path d="M282.868 36.1H314.968V46.2H282.168C276.668 46.2 272.168 41.7 272.168 36.1V11.6C272.168 5.69999 276.968 0.899997 282.868 0.899997H314.968C320.868 0.899997 325.668 5.69999 325.668 11.6V25.4C325.668 31.3 320.868 36.1 314.968 36.1V11H282.868V36.1ZM274.668 70.9V60.9H314.968V46.2C320.868 46.2 325.668 50.9 325.668 56.9V60.3C325.668 66.2 320.868 71 314.968 71V70.9H274.668ZM348.395 36.1H380.495V46.2H347.695C342.195 46.2 337.695 41.7 337.695 36.1V11.6C337.695 5.69999 342.495 0.899997 348.395 0.899997H380.495C386.395 0.899997 391.195 5.69999 391.195 11.6V25.4C391.195 31.3 386.395 36.1 380.495 36.1V11H348.395V36.1ZM340.195 70.9V60.9H380.495V46.2C386.395 46.2 391.195 50.9 391.195 56.9V60.3C391.195 66.2 386.395 71 380.495 71V70.9H340.195Z" fill="#FFA620"/>
<path d="M10.7 45.9H9.7V46.9H10.7V45.9ZM10.7 35.9V34.9H9.7V35.9H10.7ZM42.8 35.9V36.9H43.8V35.9H42.8ZM42.8 11H43.8V10H42.8V11ZM10.7 11V10H9.7V11H10.7ZM10.7 35.9V36.9H11.7V35.9H10.7ZM0 71H-1V72H0V71ZM10.7 45.9H11.7V44.9H10.7V45.9ZM10.7 71V72H11.7V71H10.7ZM10.7 2H42.8V-3.8147e-06H10.7V2ZM42.8 2C48.1477 2 52.5 6.35228 52.5 11.7H54.5C54.5 5.24771 49.2523 -3.8147e-06 42.8 -3.8147e-06V2ZM52.5 11.7V35.2H54.5V11.7H52.5ZM52.5 35.2C52.5 40.6416 48.1538 44.9 42.8 44.9V46.9C49.2462 46.9 54.5 41.7584 54.5 35.2H52.5ZM42.8 44.9H10.7V46.9H42.8V44.9ZM11.7 45.9V35.9H9.7V45.9H11.7ZM10.7 36.9H42.8V34.9H10.7V36.9ZM43.8 35.9V11H41.8V35.9H43.8ZM42.8 10H10.7V12H42.8V10ZM9.7 11V35.9H11.7V11H9.7ZM10.7 34.9C5.35229 34.9 1 30.5477 1 25.2H-1C-1 31.6523 4.24771 36.9 10.7 36.9V34.9ZM1 25.2V11.7H-1V25.2H1ZM1 11.7C1 6.35228 5.35229 2 10.7 2V-3.8147e-06C4.24771 -3.8147e-06 -1 5.24771 -1 11.7H1ZM1 71V56.6H-1V71H1ZM1 56.6C1 51.2523 5.35229 46.9 10.7 46.9V44.9C4.24772 44.9 -1 50.1477 -1 56.6H1ZM9.7 45.9V71H11.7V45.9H9.7ZM10.7 70H0V72H10.7V70ZM65.5273 71H64.5273V72H65.5273V71ZM65.5273 1.2V0.199999H64.5273V1.2H65.5273ZM76.2273 1.2H77.2273V0.199999H76.2273V1.2ZM76.2273 71V72H77.2273V71H76.2273ZM66.5273 71V1.2H64.5273V71H66.5273ZM65.5273 2.2H76.2273V0.199999H65.5273V2.2ZM75.2273 1.2V71H77.2273V1.2H75.2273ZM76.2273 70H65.5273V72H76.2273V70ZM88.1836 0.999996V-3.8147e-06H87.1836V0.999996H88.1836ZM98.8836 0.999996H99.8836V-3.8147e-06H98.8836V0.999996ZM98.8836 31V32H99.8836V31H98.8836ZM141.684 0.999996H142.684V-3.8147e-06H141.684V0.999996ZM130.984 31H129.984V32H130.984V31ZM130.984 0.999996V-3.8147e-06H129.984V0.999996H130.984ZM98.8836 40.9V41.9H99.8836V40.9H98.8836ZM98.8836 31V30H97.8836V31H98.8836ZM130.984 31H131.984V30H130.984V31ZM130.984 40.9H129.984V41.9H130.984V40.9ZM141.684 71V72H142.684V71H141.684ZM130.984 71H129.984V72H130.984V71ZM130.984 41H131.984V40H130.984V41ZM98.8836 41V40H97.8836V41H98.8836ZM98.8836 71V72H99.8836V71H98.8836ZM88.1836 71H87.1836V72H88.1836V71ZM89.1836 20.3V0.999996H87.1836V20.3H89.1836ZM88.1836 2H98.8836V-3.8147e-06H88.1836V2ZM97.8836 0.999996V31H99.8836V0.999996H97.8836ZM98.8836 30C93.5359 30 89.1836 25.6477 89.1836 20.3H87.1836C87.1836 26.7523 92.4313 32 98.8836 32V30ZM140.684 0.999996V20.3H142.684V0.999996H140.684ZM140.684 20.3C140.684 25.6477 136.331 30 130.984 30V32C137.436 32 142.684 26.7523 142.684 20.3H140.684ZM131.984 31V0.999996H129.984V31H131.984ZM130.984 2H141.684V-3.8147e-06H130.984V2ZM99.8836 40.9V31H97.8836V40.9H99.8836ZM98.8836 32H130.984V30H98.8836V32ZM129.984 31V40.9H131.984V31H129.984ZM130.984 41.9C136.331 41.9 140.684 46.2523 140.684 51.6H142.684C142.684 45.1477 137.436 39.9 130.984 39.9V41.9ZM140.684 51.6V71H142.684V51.6H140.684ZM141.684 70H130.984V72H141.684V70ZM131.984 71V41H129.984V71H131.984ZM130.984 40H98.8836V42H130.984V40ZM97.8836 41V71H99.8836V41H97.8836ZM98.8836 70H88.1836V72H98.8836V70ZM89.1836 71V51.6H87.1836V71H89.1836ZM89.1836 51.6C89.1836 46.2523 93.5359 41.9 98.8836 41.9V39.9C92.4313 39.9 87.1836 45.1477 87.1836 51.6H89.1836ZM201.911 0.999996H202.911V-3.8147e-06H201.911V0.999996ZM201.911 11V12H202.911V11H201.911ZM164.411 11V10H163.411V11H164.411ZM164.411 30.9V31.9H165.411V30.9H164.411ZM164.411 0.899996H165.411V-0.100004H164.411V0.899996ZM164.411 0.999996H163.411V2H164.411V0.999996ZM199.311 30.9H200.311V29.9H199.311V30.9ZM199.311 41V42H200.311V41H199.311ZM164.411 41H163.411V42H164.411V41ZM164.411 30.9V29.9H163.411V30.9H164.411ZM164.411 41H165.411V40H164.411V41ZM164.411 61H163.411V62H164.411V61ZM201.911 61H202.911V60H201.911V61ZM201.911 71V72H202.911V71H201.911ZM200.911 0.999996V11H202.911V0.999996H200.911ZM201.911 10H164.411V12H201.911V10ZM163.411 11V30.9H165.411V11H163.411ZM164.411 29.9C159.063 29.9 154.711 25.5477 154.711 20.2H152.711C152.711 26.6523 157.959 31.9 164.411 31.9V29.9ZM154.711 20.2V11.6H152.711V20.2H154.711ZM154.711 11.6C154.711 6.25228 159.063 1.9 164.411 1.9V-0.100004C157.959 -0.100004 152.711 5.14771 152.711 11.6H154.711ZM163.411 0.899996V0.999996H165.411V0.899996H163.411ZM164.411 2H201.911V-3.8147e-06H164.411V2ZM198.311 30.9V41H200.311V30.9H198.311ZM199.311 40H164.411V42H199.311V40ZM165.411 41V30.9H163.411V41H165.411ZM164.411 31.9H199.311V29.9H164.411V31.9ZM154.711 60.3V51.7H152.711V60.3H154.711ZM154.711 51.7C154.711 46.3523 159.063 42 164.411 42V40C157.959 40 152.711 45.2477 152.711 51.7H154.711ZM163.411 41V61H165.411V41H163.411ZM164.411 62H201.911V60H164.411V62ZM200.911 61V71H202.911V61H200.911ZM201.911 70H164.411V72H201.911V70ZM164.411 70C159.063 70 154.711 65.6477 154.711 60.3H152.711C152.711 66.7523 157.959 72 164.411 72V70ZM224.567 0.999996H225.567V-3.8147e-06H224.567V0.999996ZM224.567 61V62H225.567V61H224.567ZM213.867 0.999996V-3.8147e-06H212.867V0.999996H213.867ZM260.167 61H261.167V60H260.167V61ZM260.167 71V72H261.167V71H260.167ZM224.667 71H223.667V72H224.667V71ZM224.667 61V60H223.667V61H224.667ZM223.567 0.999996V61H225.567V0.999996H223.567ZM224.567 60C219.219 60 214.867 55.6477 214.867 50.3H212.867C212.867 56.7523 218.115 62 224.567 62V60ZM214.867 50.3V0.999996H212.867V50.3H214.867ZM213.867 2H224.567V-3.8147e-06H213.867V2ZM259.167 61V71H261.167V61H259.167ZM260.167 70H224.667V72H260.167V70ZM225.667 71V61H223.667V71H225.667ZM224.667 62H260.167V60H224.667V62ZM282.868 36.1H281.868V37.1H282.868V36.1ZM314.968 36.1H315.968V35.1H314.968V36.1ZM314.968 46.2V47.2H315.968V46.2H314.968ZM314.968 36.1H313.968V37.1H314.968V36.1ZM314.968 11H315.968V10H314.968V11ZM282.868 11V10H281.868V11H282.868ZM274.668 70.9H273.668V71.9H274.668V70.9ZM274.668 60.9V59.9H273.668V60.9H274.668ZM314.968 60.9V61.9H315.968V60.9H314.968ZM314.968 46.2V45.2H313.968V46.2H314.968ZM314.968 71H313.968V72H314.968V71ZM314.968 70.9H315.968V69.9H314.968V70.9ZM282.868 37.1H314.968V35.1H282.868V37.1ZM313.968 36.1V46.2H315.968V36.1H313.968ZM314.968 45.2H282.168V47.2H314.968V45.2ZM282.168 45.2C277.227 45.2 273.168 41.1542 273.168 36.1H271.168C271.168 42.2458 276.109 47.2 282.168 47.2V45.2ZM273.168 36.1V11.6H271.168V36.1H273.168ZM273.168 11.6C273.168 6.25228 277.52 1.9 282.868 1.9V-0.100004C276.416 -0.100004 271.168 5.14771 271.168 11.6H273.168ZM282.868 1.9H314.968V-0.100004H282.868V1.9ZM314.968 1.9C320.316 1.9 324.668 6.25228 324.668 11.6H326.668C326.668 5.14771 321.42 -0.100004 314.968 -0.100004V1.9ZM324.668 11.6V25.4H326.668V11.6H324.668ZM324.668 25.4C324.668 30.7477 320.316 35.1 314.968 35.1V37.1C321.42 37.1 326.668 31.8523 326.668 25.4H324.668ZM315.968 36.1V11H313.968V36.1H315.968ZM314.968 10H282.868V12H314.968V10ZM281.868 11V36.1H283.868V11H281.868ZM275.668 70.9V60.9H273.668V70.9H275.668ZM274.668 61.9H314.968V59.9H274.668V61.9ZM315.968 60.9V46.2H313.968V60.9H315.968ZM314.968 47.2C320.322 47.2 324.668 51.4584 324.668 56.9H326.668C326.668 50.3416 321.414 45.2 314.968 45.2V47.2ZM324.668 56.9V60.3H326.668V56.9H324.668ZM324.668 60.3C324.668 65.6477 320.316 70 314.968 70V72C321.42 72 326.668 66.7523 326.668 60.3H324.668ZM315.968 71V70.9H313.968V71H315.968ZM314.968 69.9H274.668V71.9H314.968V69.9ZM348.395 36.1H347.395V37.1H348.395V36.1ZM380.495 36.1H381.495V35.1H380.495V36.1ZM380.495 46.2V47.2H381.495V46.2H380.495ZM380.495 36.1H379.495V37.1H380.495V36.1ZM380.495 11H381.495V10H380.495V11ZM348.395 11V10H347.395V11H348.395ZM340.195 70.9H339.195V71.9H340.195V70.9ZM340.195 60.9V59.9H339.195V60.9H340.195ZM380.495 60.9V61.9H381.495V60.9H380.495ZM380.495 46.2V45.2H379.495V46.2H380.495ZM380.495 71H379.495V72H380.495V71ZM380.495 70.9H381.495V69.9H380.495V70.9ZM348.395 37.1H380.495V35.1H348.395V37.1ZM379.495 36.1V46.2H381.495V36.1H379.495ZM380.495 45.2H347.695V47.2H380.495V45.2ZM347.695 45.2C342.754 45.2 338.695 41.1542 338.695 36.1H336.695C336.695 42.2458 341.637 47.2 347.695 47.2V45.2ZM338.695 36.1V11.6H336.695V36.1H338.695ZM338.695 11.6C338.695 6.25228 343.048 1.9 348.395 1.9V-0.100004C341.943 -0.100004 336.695 5.14771 336.695 11.6H338.695ZM348.395 1.9H380.495V-0.100004H348.395V1.9ZM380.495 1.9C385.843 1.9 390.195 6.25228 390.195 11.6H392.195C392.195 5.14771 386.948 -0.100004 380.495 -0.100004V1.9ZM390.195 11.6V25.4H392.195V11.6H390.195ZM390.195 25.4C390.195 30.7477 385.843 35.1 380.495 35.1V37.1C386.948 37.1 392.195 31.8523 392.195 25.4H390.195ZM381.495 36.1V11H379.495V36.1H381.495ZM380.495 10H348.395V12H380.495V10ZM347.395 11V36.1H349.395V11H347.395ZM341.195 70.9V60.9H339.195V70.9H341.195ZM340.195 61.9H380.495V59.9H340.195V61.9ZM381.495 60.9V46.2H379.495V60.9H381.495ZM380.495 47.2C385.849 47.2 390.195 51.4584 390.195 56.9H392.195C392.195 50.3416 386.941 45.2 380.495 45.2V47.2ZM390.195 56.9V60.3H392.195V56.9H390.195ZM390.195 60.3C390.195 65.6477 385.843 70 380.495 70V72C386.948 72 392.195 66.7523 392.195 60.3H390.195ZM381.495 71V70.9H379.495V71H381.495ZM380.495 69.9H340.195V71.9H380.495V69.9Z" fill="black"/>
</svg>
